HIERARCHY
ROOT Hips
{
  OFFSET 5.80788e-005 67.184 3.4734
  CHANNELS 6 Xposition Yposition Zposition Zrotation Xrotation Yrotation
  JOINT Chest
  {
    OFFSET 0 8.7983 -4.7612
    CHANNELS 3 Zrotation Xrotation Yrotation
    JOINT Chest2
    {
      OFFSET 0 8.0291 0.4195
      CHANNELS 3 Zrotation Xrotation Yrotation
      JOINT Chest3
      {
        OFFSET 0 9.9351 -2.2114
        CHANNELS 3 Zrotation Xrotation Yrotation
        JOINT Neck
        {
          OFFSET 0 22.3885 -0.4656
          CHANNELS 3 Zrotation Xrotation Yrotation
          JOINT Head
          {
            OFFSET -0.0001 12.643 3.4389
            CHANNELS 3 Zrotation Xrotation Yrotation
            End Site
            {
              OFFSET 0.0001 17.6655 0.5274
            }
          }
        }
        JOINT LeftCollar
        {
          OFFSET 2.2603 21.606 7.4023
          CHANNELS 3 Zrotation Xrotation Yrotation
          JOINT LeftShoulder
          {
            OFFSET 13.5163 -1.1332 -5.0146
            CHANNELS 3 Zrotation Xrotation Yrotation
            JOINT LeftElbow
            {
              OFFSET -0.0995 -28.05 -0.2431
              CHANNELS 3 Zrotation Xrotation Yrotation
              JOINT LeftWrist
              {
                OFFSET 0.0679 -23.3996 -0.1402
                CHANNELS 3 Zrotation Xrotation Yrotation
                JOINT LeftFinger1
                {
                  OFFSET 0.7932 -9.069 2.5189
                  CHANNELS 3 Zrotation Xrotation Yrotation
                  JOINT LeftFinger11
                  {
                    OFFSET -0.8272 -3.3923 0.5977
                    CHANNELS 3 Zrotation Xrotation Yrotation
                    JOINT LeftFinger12
                    {
                      OFFSET -0.5649 -2.3158 0.4082
                      CHANNELS 3 Zrotation Xrotation Yrotation
                      End Site
                      {
                        OFFSET -0.4919 -1.6479 0.2673
                      }
                    }
                  }
                }
                JOINT LeftFinger2
                {
                  OFFSET 0.9159 -9.2044 0.2193
                  CHANNELS 3 Zrotation Xrotation Yrotation
                  JOINT LeftFinger21
                  {
                    OFFSET 0.0117 -4.1944 -0.0248
                    CHANNELS 3 Zrotation Xrotation Yrotation
                    JOINT LeftFinger22
                    {
                      OFFSET 0.0071 -2.3249 -0.0142
                      CHANNELS 3 Zrotation Xrotation Yrotation
                      End Site
                      {
                        OFFSET -0.1475 -2.0882 0.0028
                      }
                    }
                  }
                }
                JOINT LeftFinger3
                {
                  OFFSET 0.6113 -8.7231 -2.0637
                  CHANNELS 3 Zrotation Xrotation Yrotation
                  JOINT LeftFinger31
                  {
                    OFFSET -0.1927 -3.8059 -0.2383
                    CHANNELS 3 Zrotation Xrotation Yrotation
                    JOINT LeftFinger32
                    {
                      OFFSET -0.1091 -2.1688 -0.1362
                      CHANNELS 3 Zrotation Xrotation Yrotation
                      End Site
                      {
                        OFFSET -0.2358 -1.9176 -0.0906
                      }
                    }
                  }
                }
                JOINT LeftFinger4
                {
                  OFFSET -0.6151 -8.0947 -3.5641
                  CHANNELS 3 Zrotation Xrotation Yrotation
                  JOINT LeftFinger41
                  {
                    OFFSET -0.4882 -2.341 -0.6462
                    CHANNELS 3 Zrotation Xrotation Yrotation
                    JOINT LeftFinger42
                    {
                      OFFSET -0.3575 -1.7167 -0.4742
                      CHANNELS 3 Zrotation Xrotation Yrotation
                      End Site
                      {
                        OFFSET -0.4187 -1.5237 -0.3496
                      }
                    }
                  }
                }
                JOINT LeftFinger0
                {
                  OFFSET -1.42 -1.8761 1.4223
                  CHANNELS 3 Zrotation Xrotation Yrotation
                  JOINT LeftFinger01
                  {
                    OFFSET -1.1471 -3.4929 2.6334
                    CHANNELS 3 Zrotation Xrotation Yrotation
                    JOINT LeftFinger02
                    {
                      OFFSET -0.823 -2.3 1.6571
                      CHANNELS 3 Zrotation Xrotation Yrotation
                      End Site
                      {
                        OFFSET -0.5822 -1.6914 1.1582
                      }
                    }
                  }
                }
              }
            }
          }
        }
        JOINT RightCollar
        {
          OFFSET -2.2603 21.606 7.4023
          CHANNELS 3 Zrotation Xrotation Yrotation
          JOINT RightShoulder
          {
            OFFSET -13.5187 -1.1334 -5.0155
            CHANNELS 3 Zrotation Xrotation Yrotation
            JOINT RightElbow
            {
              OFFSET 0.0994 -28.0499 -0.2431
              CHANNELS 3 Zrotation Xrotation Yrotation
              JOINT RightWrist
              {
                OFFSET -0.0679 -23.3996 -0.1402
                CHANNELS 3 Zrotation Xrotation Yrotation
                JOINT RightFinger1
                {
                  OFFSET -0.7932 -9.0691 2.5189
                  CHANNELS 3 Zrotation Xrotation Yrotation
                  JOINT RightFinger11
                  {
                    OFFSET 0.8272 -3.3923 0.5977
                    CHANNELS 3 Zrotation Xrotation Yrotation
                    JOINT RightFinger12
                    {
                      OFFSET 0.565 -2.3158 0.4082
                      CHANNELS 3 Zrotation Xrotation Yrotation
                      End Site
                      {
                        OFFSET 0.4919 -1.6479 0.2673
                      }
                    }
                  }
                }
                JOINT RightFinger2
                {
                  OFFSET -0.916 -9.2044 0.2193
                  CHANNELS 3 Zrotation Xrotation Yrotation
                  JOINT RightFinger21
                  {
                    OFFSET -0.0117 -4.1944 -0.0248
                    CHANNELS 3 Zrotation Xrotation Yrotation
                    JOINT RightFinger22
                    {
                      OFFSET -0.0071 -2.3249 -0.0142
                      CHANNELS 3 Zrotation Xrotation Yrotation
                      End Site
                      {
                        OFFSET 0.1475 -2.0882 0.0028
                      }
                    }
                  }
                }
                JOINT RightFinger3
                {
                  OFFSET -0.6113 -8.7231 -2.0637
                  CHANNELS 3 Zrotation Xrotation Yrotation
                  JOINT RightFinger31
                  {
                    OFFSET 0.1927 -3.8059 -0.2383
                    CHANNELS 3 Zrotation Xrotation Yrotation
                    JOINT RightFinger32
                    {
                      OFFSET 0.1091 -2.1688 -0.1362
                      CHANNELS 3 Zrotation Xrotation Yrotation
                      End Site
                      {
                        OFFSET 0.2358 -1.9176 -0.0906
                      }
                    }
                  }
                }
                JOINT RightFinger4
                {
                  OFFSET 0.6151 -8.0947 -3.564
                  CHANNELS 3 Zrotation Xrotation Yrotation
                  JOINT RightFinger41
                  {
                    OFFSET 0.4882 -2.341 -0.6462
                    CHANNELS 3 Zrotation Xrotation Yrotation
                    JOINT RightFinger42
                    {
                      OFFSET 0.3574 -1.7166 -0.4742
                      CHANNELS 3 Zrotation Xrotation Yrotation
                      End Site
                      {
                        OFFSET 0.4187 -1.5237 -0.3496
                      }
                    }
                  }
                }
                JOINT RightFinger0
                {
                  OFFSET 1.4199 -1.8761 1.4221
                  CHANNELS 3 Zrotation Xrotation Yrotation
                  JOINT RightFinger01
                  {
                    OFFSET 1.1472 -3.4929 2.6336
                    CHANNELS 3 Zrotation Xrotation Yrotation
                    JOINT RightFinger02
                    {
                      OFFSET 0.8229 -2.3 1.6571
                      CHANNELS 3 Zrotation Xrotation Yrotation
                      End Site
                      {
                        OFFSET 0.5822 -1.6914 1.1582
                      }
                    }
                  }
                }
              }
            }
          }
        }
      }
    }
  }
  JOINT RightHip
  {
    OFFSET -9.412 3.9771 -0.7758
    CHANNELS 3 Zrotation Xrotation Yrotation
    JOINT RightKnee
    {
      OFFSET -0.7531 -40.938 0
      CHANNELS 3 Zrotation Xrotation Yrotation
      JOINT RightAnkle
      {
        OFFSET 0 -40.1986 0
        CHANNELS 3 Zrotation Xrotation Yrotation
        JOINT RightToe
        {
          OFFSET 0 -4.4182 9.239
          CHANNELS 3 Zrotation Xrotation Yrotation
          End Site
          {
            OFFSET 0 0 6.1981
          }
        }
      }
    }
  }
  JOINT LeftHip
  {
    OFFSET 9.4119 3.9773 -0.7758
    CHANNELS 3 Zrotation Xrotation Yrotation
    JOINT LeftKnee
    {
      OFFSET 0.7532 -40.9383 0
      CHANNELS 3 Zrotation Xrotation Yrotation
      JOINT LeftAnkle
      {
        OFFSET 0 -40.1986 0
        CHANNELS 3 Zrotation Xrotation Yrotation
        JOINT LeftToe
        {
          OFFSET 0 -4.4182 9.239
          CHANNELS 3 Zrotation Xrotation Yrotation
          End Site
          {
            OFFSET 0 0 6.1981
          }
        }
      }
    }
  }
}
MOTION
Frames:	6
Frame Time:	0.0333333
-0.635385 60.8007 5.85317 2.31679e-009 -0.974891 1.36168e-007 -0.644053 2.04504 -0.215431 -1.28163 4.09234 -0.408218 -1.28163 4.09235 -0.408219 7.10906 9.27741 -1.19728 -1.42788e-006 11.1082 1.84761e-007 4.6611 3.09172 -17.7656 37.1542 -5.67759 21.318 -71.2346 -42.9964 -51.7457 -6.89636 8.30806 0.799506 -5.9933e-007 -5.04265e-006 -3.06379e-006 1.79024e-006 5.74794e-006 1.64261e-006 9.54166e-015 7.95139e-015 3.18055e-015 -5.9933e-007 -5.04265e-006 -3.06379e-006 -0.0128462 0.00232744 8.43873e-005 -1.76556e-031 -3.18055e-015 -3.18055e-015 -5.9933e-007 -5.04265e-006 -3.06379e-006 -0.0160222 0.00298871 0.000851401 -2.64834e-031 -4.77083e-015 -3.18055e-015 -5.9933e-007 -5.04265e-006 -3.06379e-006 -0.0125285 0.00313331 0.0028206 -9.54166e-015 0 -6.36111e-015 -5.9933e-007 -5.04265e-006 -3.06379e-006 1.79024e-006 5.74794e-006 1.64261e-006 9.54166e-015 7.95139e-015 3.18055e-015 -5.79842 2.89984 12.0744 -36.6653 -7.76598 -17.1563 70.1267 -43.5049 51.1719 8.18796 7.91582 -0.289524 -3.18055e-015 -3.18055e-015 -3.18055e-015 -3.18055e-015 -3.18055e-015 -3.18055e-015 3.18055e-015 -3.18055e-015 3.18055e-015 -3.18055e-015 -3.18055e-015 -3.18055e-015 0.0129476 0.00232746 -8.92761e-005 4.66913e-006 4.62417e-006 5.48441e-006 -3.18055e-015 -3.18055e-015 -3.18055e-015 0.0163392 0.00303943 -0.000871678 6.69404e-007 6.30328e-007 2.74459e-006 -3.18055e-015 -3.18055e-015 -3.18055e-015 0.0145936 0.00368311 -0.0032652 3.18055e-015 -9.54166e-015 -1.27222e-014 -3.18055e-015 -3.18055e-015 -3.18055e-015 -3.18055e-015 -3.18055e-015 -3.18055e-015 3.18055e-015 -3.18055e-015 3.18055e-015 -26.7645 -23.0013 -33.1802 -143.681 48.0518 145.638 6.4346 21.5541 15.6617 1.81006e-006 -6.11783e-008 -9.51713e-008 23.4735 -21.0368 32.0649 143.876 47.8864 -145.798 -4.86143 22.1425 -14.9976 1.8341e-006 3.02458e-008 3.38993e-008 
-0.635453 60.7657 5.62738 2.16835e-007 -0.448445 1.42456e-007 -0.643486 1.86114 -0.21733 -1.28091 3.72458 -0.414049 -1.28091 3.72458 -0.414049 7.14507 9.32271 -1.20618 3.54977e-010 11.1631 4.59623e-007 4.59521 3.47627 -17.676 37.1542 -5.67759 21.318 -71.5345 -43.0195 -51.9653 -6.87046 8.43275 0.68086 6.36111e-015 3.18055e-015 -0 8.28483e-006 4.44991e-006 5.27749e-006 9.54166e-015 6.36111e-015 3.18055e-015 6.36111e-015 3.18055e-015 -0 -0.0127957 0.00232135 9.01255e-005 -6.36111e-015 -1.59028e-015 -3.18055e-015 6.36111e-015 3.18055e-015 -0 -0.0160392 0.00300082 0.000864199 -6.36111e-015 7.95139e-015 -3.18055e-015 6.36111e-015 3.18055e-015 -0 -0.0125939 0.00312607 0.00283584 6.36111e-015 -4.77083e-015 -0 6.36111e-015 3.18055e-015 -0 8.28483e-006 4.44991e-006 5.27749e-006 9.54166e-015 6.36111e-015 3.18055e-015 -5.73717 3.28104 11.9787 -36.6653 -7.76602 -17.1563 70.4121 -43.5306 51.3815 8.18607 8.02719 -0.169879 2.47001e-006 -4.79117e-006 -2.31547e-006 5.6055e-007 -6.16903e-007 -3.8983e-006 -3.53113e-031 -6.36111e-015 -3.18055e-015 2.47001e-006 -4.79117e-006 -2.31547e-006 0.0129844 0.00233141 -9.51655e-005 -2.61974e-006 -9.28104e-007 -7.90736e-007 2.47001e-006 -4.79117e-006 -2.31547e-006 0.0163196 0.00303534 -0.000870964 -1.23513e-006 -1.27158e-006 1.15767e-006 2.47001e-006 -4.79117e-006 -2.31547e-006 0.0145844 0.00367598 -0.00325868 1.76556e-031 -3.18055e-015 3.18055e-015 2.47001e-006 -4.79117e-006 -2.31547e-006 5.6055e-007 -6.16903e-007 -3.8983e-006 -3.53113e-031 -6.36111e-015 -3.18055e-015 -26.6844 -23.7999 -33.2905 -143.895 47.8843 145.779 6.67261 21.5945 15.5461 3.44681e-007 1.07396e-005 -9.77737e-007 23.3879 -21.841 32.1612 144.098 47.7115 -145.943 -5.07888 22.1791 -14.8966 -4.68716e-006 -7.51188e-006 -2.67553e-006 
-0.635518 60.7312 5.4013 1.34115e-007 0.077954 -6.1481e-009 -0.642861 1.67734 -0.219208 -1.28012 3.35702 -0.419834 -1.28012 3.35703 -0.419835 7.18106 9.36812 -1.21513 -1.24035e-006 11.2179 8.05263e-007 4.52866 3.86079 -17.5859 37.1542 -5.67759 21.318 -71.8347 -43.0418 -52.185 -6.84448 8.55745 0.562072 0 7.95139e-015 -0 -7.58669e-007 2.88876e-006 -2.79673e-006 -6.36111e-015 1.59028e-015 -0 0 7.95139e-015 -0 -0.0127803 0.00234116 8.84846e-005 3.18055e-015 -3.18055e-015 -0 0 7.95139e-015 -0 -0.016026 0.00300622 0.000852865 -3.18055e-015 3.18055e-015 -3.18055e-015 0 7.95139e-015 -0 -0.0125787 0.00311346 0.00282393 3.18055e-015 4.77083e-015 3.18055e-015 0 7.95139e-015 -0 -7.58669e-007 2.88876e-006 -2.79673e-006 -6.36111e-015 1.59028e-015 -0 -5.6753 3.66222 11.8826 -36.6653 -7.76598 -17.1563 70.6979 -43.5556 51.5915 8.18391 8.13859 -0.0501799 3.18055e-015 -1.27222e-014 3.18055e-015 -3.53113e-031 -3.18055e-015 -6.36111e-015 -3.18055e-015 -9.54166e-015 3.18055e-015 3.18055e-015 -1.27222e-014 3.18055e-015 0.0129324 0.00232121 -8.7288e-005 -1.78856e-006 4.35024e-006 5.05549e-006 3.18055e-015 -1.27222e-014 3.18055e-015 0.0163906 0.0030432 -0.000875776 6.77747e-007 2.52828e-006 2.73668e-006 3.18055e-015 -1.27222e-014 3.18055e-015 0.0145833 0.00368783 -0.00327903 1.91108e-006 2.54195e-007 1.57739e-006 3.18055e-015 -1.27222e-014 3.18055e-015 -3.53113e-031 -3.18055e-015 -6.36111e-015 -3.18055e-015 -9.54166e-015 3.18055e-015 -26.6049 -24.5985 -33.4002 -144.109 47.7163 145.919 6.91082 21.6343 15.4302 -3.58426e-007 1.05289e-007 7.74825e-007 23.3029 -22.6451 32.2567 144.318 47.5361 -146.087 -5.29649 22.2152 -14.7954 -4.97363e-006 1.46915e-005 -3.23667e-006 
-0.63558 60.6974 5.17494 -3.10607e-007 0.604288 1.33978e-007 -0.642181 1.49372 -0.221063 -1.27924 2.98982 -0.425577 -1.27924 2.98982 -0.425577 7.21705 9.41354 -1.22412 1.37494e-006 11.2728 -5.74131e-007 4.46146 4.2452 -17.4953 37.1542 -5.67762 21.318 -72.135 -43.0632 -52.405 -6.8185 8.68211 0.443164 6.86517e-006 2.84114e-006 -4.33941e-006 -6.36111e-015 4.77083e-015 -6.36111e-015 -6.36111e-015 1.59028e-015 -0 6.86517e-006 2.84114e-006 -4.33941e-006 -0.0128554 0.00233172 8.44813e-005 6.36111e-015 3.18055e-015 6.36111e-015 6.86517e-006 2.84114e-006 -4.33941e-006 -0.0160038 0.00298882 0.000860415 6.36111e-015 1.59028e-015 -0 6.86517e-006 2.84114e-006 -4.33941e-006 -0.0126105 0.00312037 0.00282623 1.2248e-005 1.07923e-005 4.4714e-006 6.86517e-006 2.84114e-006 -4.33941e-006 -6.36111e-015 4.77083e-015 -6.36111e-015 -6.36111e-015 1.59028e-015 -0 -5.61277 4.0433 11.786 -36.6653 -7.76597 -17.1563 70.984 -43.5798 51.8017 8.18158 8.24997 0.0694647 3.30506e-006 4.03276e-006 3.52071e-006 -3.53113e-031 3.18055e-015 6.36111e-015 3.18055e-015 -3.18055e-015 -3.18055e-015 3.30506e-006 4.03276e-006 3.52071e-006 0.0129908 0.00232176 -9.41889e-005 6.36111e-015 -3.18055e-015 -3.18055e-015 3.30506e-006 4.03276e-006 3.52071e-006 0.0163354 0.00302745 -0.000872157 -1.23142e-006 2.80279e-006 1.16117e-006 3.30506e-006 4.03276e-006 3.52071e-006 0.014572 0.00366483 -0.00325804 -1.89914e-006 1.51458e-005 -7.76386e-006 3.30506e-006 4.03276e-006 3.52071e-006 -3.53113e-031 3.18055e-015 6.36111e-015 3.18055e-015 -3.18055e-015 -3.18055e-015 -26.5262 -25.3969 -33.5093 -144.321 47.548 146.057 7.14918 21.6735 15.3141 0 6.36111e-015 -0 23.2183 -23.4489 32.3515 144.537 47.3602 -146.229 -5.5143 22.2507 -14.6939 2.42604e-006 -4.37992e-007 2.3068e-006 
-0.63564 60.6643 4.94831 -3.47751e-007 1.13053 -4.05354e-008 -0.641454 1.31038 -0.222902 -1.27831 2.62317 -0.431281 -1.2783 2.62316 -0.43128 7.25311 9.45878 -1.2331 2.91882e-007 11.3277 -5.9358e-007 4.39369 4.62931 -17.4042 37.1542 -5.67759 21.318 -72.4357 -43.0838 -52.6253 -6.79245 8.8068 0.324198 7.54843e-007 8.94536e-008 -8.32656e-006 1.59028e-014 3.38241e-006 3.18055e-015 -6.36111e-015 -1.59028e-015 6.36111e-015 7.54843e-007 8.94536e-008 -8.32656e-006 -0.012752 0.0023286 8.74819e-005 9.54166e-015 0 -9.54166e-015 7.54843e-007 8.94536e-008 -8.32656e-006 -0.0159946 0.00298722 0.000853323 -4.41391e-031 -7.95139e-015 -3.18055e-015 7.54843e-007 8.94536e-008 -8.32656e-006 -0.012594 0.00314059 0.00282406 -1.27222e-014 -1.59028e-015 -6.36111e-015 7.54843e-007 8.94536e-008 -8.32656e-006 1.59028e-014 3.38241e-006 3.18055e-015 -6.36111e-015 -1.59028e-015 6.36111e-015 -5.54951 4.42406 11.6889 -36.6653 -7.76602 -17.1563 71.2701 -43.6032 52.0121 8.17895 8.36134 0.189238 -3.53113e-031 3.18055e-015 6.36111e-015 -1.13663e-006 2.71893e-006 9.65392e-007 1.13663e-006 -2.71893e-006 -9.65392e-007 -3.53113e-031 3.18055e-015 6.36111e-015 0.0129361 0.00232292 -8.05243e-005 0 9.54166e-015 -0 -3.53113e-031 3.18055e-015 6.36111e-015 0.0163127 0.00303028 -0.00087197 3.18055e-015 9.54166e-015 -3.18055e-015 -3.53113e-031 3.18055e-015 6.36111e-015 0.0145809 0.00367169 -0.00325523 -1.27222e-014 -3.18055e-015 -6.36111e-015 -3.53113e-031 3.18055e-015 6.36111e-015 -1.13663e-006 2.71893e-006 9.65392e-007 1.13663e-006 -2.71893e-006 -9.65392e-007 -26.448 -26.1953 -33.6179 -144.532 47.3792 146.194 7.38778 21.7122 15.1976 -3.63855e-006 3.30984e-006 -1.79674e-006 23.1342 -24.2525 32.4456 144.755 47.1841 -146.369 -5.7322 22.286 -14.5922 -1.24241e-006 -9.65674e-007 2.23958e-006 
-0.635698 60.6317 4.72143 3.83326e-008 1.65667 2.66958e-008 -0.640655 1.12732 -0.224714 -1.27725 2.25706 -0.436932 -1.27725 2.25705 -0.43693 7.28913 9.50417 -1.24214 -8.42029e-007 11.3825 -1.00282e-006 4.32522 5.0134 -17.3127 37.1542 -5.67762 21.318 -72.7363 -43.1035 -52.8456 -6.76641 8.93146 0.20513 4.08778e-006 -1.99625e-007 -1.11558e-006 -3.18055e-015 3.18055e-015 3.18055e-015 1.65832e-006 2.60513e-006 -1.94996e-006 4.08778e-006 -1.99625e-007 -1.11558e-006 -0.0128023 0.00233472 9.53227e-005 4.80514e-007 -1.43421e-006 -4.91246e-007 4.08778e-006 -1.99625e-007 -1.11558e-006 -0.0160662 0.003 0.00086283 1.65845e-006 -6.69243e-007 -1.94988e-006 4.08778e-006 -1.99625e-007 -1.11558e-006 -0.0125518 0.0031257 0.00282861 1.65845e-006 9.32426e-007 -1.94988e-006 4.08778e-006 -1.99625e-007 -1.11558e-006 -3.18055e-015 3.18055e-015 3.18055e-015 1.65832e-006 2.60513e-006 -1.94996e-006 -5.48564 4.80482 11.5914 -36.6653 -7.76601 -17.1563 71.5566 -43.6259 52.2228 8.17613 8.47272 0.309023 -3.18055e-015 1.27222e-014 -0 -3.18055e-015 9.54166e-015 -0 -1.41245e-030 1.27222e-014 6.36111e-015 -3.18055e-015 1.27222e-014 -0 0.0129465 0.00230627 -7.84406e-005 -5.29669e-031 -9.54166e-015 -3.18055e-015 -3.18055e-015 1.27222e-014 -0 0.0163616 0.00302747 -0.000866538 -3.76421e-006 1.79918e-005 -1.57813e-005 -3.18055e-015 1.27222e-014 -0 0.0145885 0.00368048 -0.00326768 -6.36111e-015 -3.18055e-015 3.18055e-015 -3.18055e-015 1.27222e-014 -0 -3.18055e-015 9.54166e-015 -0 -1.41245e-030 1.27222e-014 6.36111e-015 -26.3705 -26.9932 -33.7258 -144.742 47.2102 146.329 7.6265 21.7504 15.0809 -3.24408e-006 1.1302e-006 3.19498e-006 23.0505 -25.0558 32.5388 144.971 47.0075 -146.508 -5.95026 22.3208 -14.4902 -4.14152e-007 -2.83973e-007 7.46517e-007 
